<?xml version="1.0" encoding="UTF-8"?><svg id="Layer_2" xmlns="http://www.w3.org/2000/svg" viewBox="0 0 700 177.79"><defs><style>.cls-1{fill:none;}.cls-1,.cls-2,.cls-3,.cls-4,.cls-5{stroke-width:0px;}.cls-2{fill:#19468c;}.cls-3{fill:#e02826;}.cls-4{fill:#fff;}.cls-5{fill:#00b2e3;}</style></defs><g id="Art"><polygon class="cls-3" points="422.15 24.93 425.88 2.41 340.68 2.41 340.63 2.46 315.57 53.36 333.54 115.07 387.19 115.07 395.03 67.75 412.86 67.75 416.41 46.31 398.58 46.31 402.12 24.93 422.15 24.93"/><polygon class="cls-4" points="285.33 115.25 284.27 115.25 305.7 72.38 272.7 45.61 319.3 45.21 340.63 2.46 347.81 45.21 392.68 45.56 392.66 45.66 352.13 72.32 358.58 115.08 358.36 115.08 326.3 89.08 285.33 115.25"/><path class="cls-3" d="m485.13,68.38c-1.87,11.33-3.46,19.35-4.77,24.06-1.31,4.71-3.67,9.02-7.08,12.92-3.41,3.9-7.65,6.89-12.7,8.98-5.06,2.09-10.72,3.13-16.98,3.13s-11.12-.99-15.53-2.96c-4.41-1.97-7.72-4.93-9.95-8.88-2.23-3.94-3.23-8.24-3.01-12.88.22-4.64,1.29-12.77,3.21-24.37l3.19-19.29c1.87-11.33,3.46-19.35,4.77-24.06,1.3-4.71,3.66-9.02,7.08-12.92,3.41-3.9,7.65-6.89,12.7-8.98,5.05-2.09,10.71-3.13,16.98-3.13,5.94,0,11.12.99,15.53,2.96,4.41,1.97,7.72,4.93,9.95,8.88,2.23,3.95,3.23,8.24,3.01,12.88-.22,4.64-1.29,12.77-3.21,24.37l-3.19,19.29Zm-22.75-37.05c.87-5.25,1.14-8.6.81-10.06-.33-1.46-1.39-2.19-3.17-2.19-1.51,0-2.76.59-3.76,1.78-1,1.18-1.97,4.68-2.93,10.48l-8.71,52.64c-1.08,6.55-1.49,10.58-1.22,12.12.27,1.53,1.37,2.3,3.29,2.3s3.37-.88,4.21-2.65c.84-1.76,1.81-5.96,2.91-12.6l8.57-51.81Z"/><path class="cls-3" d="m504.02,2.37h20.44c13.63,0,22.76.53,27.41,1.6,4.65,1.07,8.13,3.79,10.45,8.18,2.31,4.39,2.68,11.39,1.08,20.99-1.45,8.77-3.5,14.67-6.15,17.69-2.65,3.02-7.18,4.83-13.59,5.43,5.48,1.44,9,3.37,10.57,5.78,1.57,2.41,2.42,4.63,2.57,6.65.15,2.02-.53,7.58-2.04,16.68l-4.92,29.73h-26.82l6.2-37.46c1-6.03,1.15-9.77.45-11.21-.7-1.44-3.04-2.16-7.02-2.16l-8.41,50.83h-28.88L504.02,2.37Zm25.69,19.29l-4.15,25.07c3.25,0,5.6-.45,7.05-1.36,1.45-.91,2.59-3.84,3.41-8.81l1.03-6.2c.59-3.57.35-5.92-.72-7.03-1.07-1.11-3.28-1.67-6.62-1.67Z"/><path class="cls-3" d="m636.17,51.46h-28.88l3.24-19.59c.94-5.7,1.22-9.25.84-10.67-.38-1.41-1.63-2.12-3.73-2.12-2.38,0-4.03.86-4.95,2.58-.93,1.72-1.86,5.43-2.81,11.14l-8.66,52.36c-.91,5.48-1.18,9.05-.81,10.72.36,1.67,1.66,2.51,3.91,2.51s3.69-.84,4.63-2.51c.94-1.68,1.92-5.61,2.95-11.8l2.34-14.17h28.88l-.73,4.39c-1.93,11.67-4.11,19.95-6.54,24.83-2.43,4.88-6.73,9.16-12.89,12.83-6.16,3.67-13.32,5.51-21.45,5.51s-15.18-1.56-20.15-4.67c-4.97-3.11-7.9-7.42-8.77-12.92-.87-5.5-.4-13.78,1.43-24.82l5.45-32.94c1.34-8.12,2.63-14.22,3.85-18.28,1.22-4.06,3.5-7.97,6.85-11.73,3.34-3.76,7.6-6.72,12.79-8.88,5.18-2.16,10.9-3.24,17.17-3.24,8.51,0,15.25,1.67,20.23,5.01,4.98,3.34,7.93,7.5,8.84,12.48.91,4.98.5,12.74-1.24,23.26l-1.77,10.71Z"/><path class="cls-3" d="m651.84,2.37h48.16l-3.73,22.56h-19.28l-3.54,21.38h18.04l-3.55,21.45h-18.04l-4.1,24.79h21.2l-3.73,22.56h-50.08l18.66-112.74Z"/><path class="cls-2" d="m340.62,2.48l-24.99,50.9,18.16,61.7h-30.33l-13.46-48.19-8,48.33h-28.88L271.79,2.48h28.88l-7.25,43.8,20.11-43.8h27.09Z"/><path class="cls-1" d="m230.06,36.58l1.02-6.19c.59-3.57.35-5.92-.72-7.04-1.08-1.11-3.28-1.67-6.62-1.67l-4.15,25.07c3.25,0,5.6-.45,7.05-1.36,1.45-.91,2.59-3.84,3.41-8.81Z"/><path class="cls-4" d="m250.93,122.8c-87.8-2.03-178.18-5.74-199.02-6.92-8.27-.42-12.97-1.08-14.7-1.91-.12.39-.23.77-.36,1.16H1.44c-4.77,10.46,78.2,15.29,78.2,15.29,73.9,3.09,105.65,5.31,160.67,7.31,188.47,6.84-22.42,38.78-22.42,38.78,0,0,169.93,4.4,320.52-3.04,343.25-26.37-38.82-44.91-287.48-50.66Z"/><path class="cls-2" d="m53.65,115.13h36.06l3.73-13.34c-16.11,2.19-29.92,4.28-39.92,6.17.03,2.43.07,4.83.13,7.17Z"/><path class="cls-2" d="m40.57,102.98c7.08-23.17,11.79-38.84,14.12-46.97-.83,16.24-1.23,31.18-1.22,44.84,11.59-1.8,25.42-3.69,41.81-5.67L121.22,2.39h-28.06c-8.05,26.1-15.15,52.79-21.31,80.08l3.91-42.89c1.86-21.49,2.86-33.89,3-37.18h-29.99c-9.54,31.9-16.47,57.68-20.79,77.36l3.34-38.03,3.46-39.34H6.74L1,115.13h.44c1.57-3.43,12.59-7.48,39.13-12.15Z"/><path class="cls-2" d="m37.21,113.97c.21-.68.42-1.35.62-2.03-1.57.76-1.84,1.44-.62,2.03Z"/><path class="cls-4" d="m53.52,107.96c10-1.89,23.81-3.98,39.92-6.17l1.85-6.62c-16.39,1.98-30.23,3.87-41.81,5.67,0,2.41.02,4.78.05,7.11Z"/><path class="cls-4" d="m37.21,113.97c-1.22-.59-.95-1.27.62-2.03.95-3.1,1.87-6.09,2.74-8.96-26.54,4.68-37.56,8.72-39.13,12.15h35.41c.12-.39.24-.77.36-1.16Z"/><path class="cls-2" d="m144.94,95.77c-.84,1.77-2.24,2.65-4.21,2.65s-2.95-.74-3.26-2.21c-9.56,1.15-18.85,2.29-27.7,3.43.5,2.09,1.29,4.1,2.38,6.02,2.23,3.95,5.55,6.91,9.95,8.88,4.41,1.97,9.58,2.96,15.53,2.96,6.26,0,11.92-1.04,16.98-3.13,5.05-2.09,9.29-5.08,12.7-8.98,3.41-3.9,5.77-8.21,7.08-12.92.05-.17.1-.38.14-.56-9.88,1.12-19.75,2.25-29.41,3.4-.07.16-.13.33-.2.47Z"/><path class="cls-2" d="m138.65,84l8.71-52.64c.96-5.8,1.94-9.3,2.93-10.48,1-1.18,2.25-1.78,3.76-1.78,1.78,0,2.84.73,3.17,2.19.33,1.46.06,4.82-.81,10.06l-8.57,51.81c-.41,2.46-.8,4.58-1.17,6.38,9.17-.92,18.86-1.86,29.1-2.82,1-4.62,2.13-10.71,3.39-18.32l3.19-19.29c1.92-11.61,2.99-19.73,3.21-24.37.22-4.64-.79-8.93-3.01-12.88-2.23-3.95-5.54-6.91-9.95-8.88C168.2,1.01,163.02.02,157.08.02c-6.27,0-11.92,1.04-16.98,3.13-5.06,2.09-9.29,5.08-12.7,8.98-3.41,3.9-5.77,8.21-7.08,12.92-1.31,4.71-2.9,12.73-4.77,24.06l-3.19,19.29c-1.92,11.61-2.99,19.73-3.21,24.37-.01.26,0,.52-.01.78,8.86-1.01,18.36-2.04,28.57-3.1.22-1.78.53-3.93.95-6.45Z"/><path class="cls-4" d="m137.47,96.21s-.03-.06-.03-.1c-.17-.94-.08-2.83.27-5.66-10.21,1.06-19.71,2.09-28.57,3.1-.04,2.1.17,4.13.64,6.09,8.84-1.13,18.14-2.28,27.7-3.43Z"/><path class="cls-4" d="m145.14,95.3c9.67-1.14,19.53-2.28,29.41-3.4.39-1.44.8-3.17,1.23-5.18-10.24.96-19.93,1.9-29.1,2.82-.56,2.68-1.07,4.58-1.55,5.76Z"/><path class="cls-2" d="m179.4,115.13h28.88l4.54-27.46c-9.61,1.04-19.49,2.13-29.41,3.24l-4.01,24.22Z"/><path class="cls-2" d="m216.69,64.29c3.98,0,6.32.72,7.02,2.16.7,1.44.55,5.18-.45,11.21l-.81,4.92c8.74-.74,17.78-1.49,27.16-2.25.93-6.11,1.35-10.01,1.24-11.62-.15-2.02-1-4.24-2.57-6.65-1.57-2.41-5.09-4.34-10.57-5.78,6.41-.6,10.94-2.41,13.59-5.43,2.65-3.02,4.7-8.91,6.15-17.68,1.59-9.61,1.23-16.61-1.09-21-2.32-4.39-5.8-7.11-10.44-8.18-4.65-1.07-13.79-1.6-27.41-1.6h-20.44l-13.83,83.55c9.32-.85,19.1-1.72,29.31-2.6l3.15-19.05Zm7.05-42.61c3.34,0,5.54.56,6.62,1.67,1.07,1.12,1.31,3.46.72,7.04l-1.02,6.19c-.82,4.97-1.96,7.9-3.41,8.81-1.45.9-3.8,1.36-7.05,1.36l4.15-25.07Z"/><path class="cls-2" d="m217.06,115.13h26.82l4.92-29.73c.09-.56.17-1.07.26-1.61-8.63.92-17.8,1.9-27.3,2.92l-4.7,28.42Z"/><path class="cls-4" d="m221.76,86.71c9.5-1.02,18.67-2,27.3-2.92.2-1.22.38-2.37.54-3.45-9.38.76-18.42,1.51-27.16,2.25l-.68,4.12Z"/><path class="cls-4" d="m212.82,87.67l.72-4.33c-10.21.88-19.99,1.75-29.31,2.6l-.82,4.97c9.93-1.11,19.8-2.2,29.41-3.24Z"/><path class="cls-4" d="m287.97,79.69l.26-1.58c-12.77.58-26.68,1.27-26.68,1.27-.82.07-1.62.13-2.44.2l-.53,3.23c11.06-1.17,21.02-2.22,29.39-3.11Z"/><path class="cls-2" d="m11.82,150.35h-4.62l.17-1.21c.08-.56.07-.92-.03-1.08-.1-.15-.28-.23-.56-.23-.3,0-.54.1-.72.31-.18.21-.3.52-.36.95-.07.54-.04.95.09,1.23.13.28.55.61,1.27,1,2.06,1.12,3.33,2.03,3.81,2.75.48.72.61,1.87.39,3.47-.16,1.16-.44,2.01-.83,2.56-.39.55-1.07,1.01-2.04,1.38-.97.37-2.06.56-3.27.56-1.33,0-2.44-.22-3.32-.64-.88-.43-1.42-.97-1.62-1.64-.2-.66-.22-1.6-.05-2.82l.15-1.06h4.62l-.27,1.98c-.08.61-.07,1,.03,1.18.11.17.32.26.65.26s.59-.11.79-.33c.19-.22.32-.55.38-.99.13-.96.06-1.58-.2-1.88-.28-.3-.98-.79-2.13-1.48-1.14-.7-1.89-1.2-2.25-1.52-.36-.31-.63-.75-.82-1.31-.19-.56-.22-1.26-.1-2.13.17-1.25.48-2.16.94-2.73.45-.58,1.12-1.03,2-1.35.88-.32,1.91-.49,3.09-.49,1.29,0,2.37.18,3.23.53.86.35,1.4.8,1.62,1.34.22.54.24,1.46.07,2.75l-.09.64Z"/><path class="cls-2" d="m46.32,154.95c-.22,1.63-.43,2.79-.61,3.47-.18.68-.55,1.3-1.11,1.86-.56.56-1.26.99-2.11,1.29-.85.3-1.82.45-2.9.45s-1.92-.14-2.7-.43c-.78-.28-1.37-.71-1.79-1.28-.42-.57-.63-1.19-.63-1.86,0-.67.11-1.84.34-3.52l.38-2.78c.22-1.63.43-2.79.61-3.47.18-.68.55-1.3,1.11-1.86.55-.56,1.26-.99,2.11-1.3.85-.3,1.82-.45,2.9-.45s1.93.14,2.7.43c.78.28,1.37.71,1.79,1.28.42.57.63,1.19.63,1.86,0,.67-.11,1.84-.34,3.52l-.38,2.78Zm-4.24-5.34c.1-.76.12-1.24.05-1.45-.07-.21-.26-.32-.57-.32-.26,0-.47.08-.63.25-.16.17-.3.68-.41,1.51l-1.04,7.59c-.13.95-.16,1.53-.1,1.75.06.22.26.33.59.33s.57-.13.7-.38c.13-.25.26-.86.39-1.82l1.03-7.48Z"/><path class="cls-2" d="m76.24,145.43l-1.79,13.01h3.03l-.45,3.26h-8l2.23-16.26h4.98Z"/><path class="cls-2" d="m113.57,145.43l-1.49,10.87c-.17,1.23-.34,2.1-.5,2.6-.16.5-.51,1.01-1.05,1.54-.54.52-1.2.92-2,1.2-.8.27-1.71.41-2.74.41-1.14,0-2.13-.16-2.96-.48-.83-.32-1.43-.74-1.79-1.25-.36-.52-.54-1.06-.54-1.63,0-.57.13-1.78.38-3.61l1.32-9.62h4.98l-1.67,12.19c-.1.71-.11,1.16-.05,1.36.06.2.23.3.51.3.32,0,.53-.11.65-.33.12-.22.24-.73.35-1.54l1.65-11.98h4.98Z"/><path class="cls-2" d="m147.3,145.43l-.45,3.25h-2.95l-1.79,13.01h-4.98l1.79-13.01h-2.94l.45-3.25h10.87Z"/><path class="cls-2" d="m175.2,145.43l-2.23,16.26h-4.98l2.23-16.26h4.98Z"/><path class="cls-2" d="m209.04,154.95c-.22,1.63-.43,2.79-.61,3.47-.18.68-.55,1.3-1.11,1.86-.56.56-1.26.99-2.11,1.29-.85.3-1.82.45-2.9.45s-1.92-.14-2.7-.43c-.78-.28-1.37-.71-1.79-1.28-.42-.57-.63-1.19-.63-1.86,0-.67.11-1.84.34-3.52l.38-2.78c.22-1.63.43-2.79.61-3.47s.55-1.3,1.11-1.86c.55-.56,1.26-.99,2.11-1.3.85-.3,1.82-.45,2.9-.45s1.93.14,2.7.43c.78.28,1.37.71,1.79,1.28.42.57.63,1.19.63,1.86,0,.67-.11,1.84-.34,3.52l-.38,2.78Zm-4.24-5.34c.1-.76.12-1.24.05-1.45-.07-.21-.26-.32-.57-.32-.26,0-.47.08-.63.25-.16.17-.3.68-.42,1.51l-1.04,7.59c-.13.95-.16,1.53-.1,1.75.06.22.26.33.59.33s.57-.13.7-.38c.13-.25.26-.86.39-1.82l1.03-7.48Z"/><path class="cls-2" d="m245.1,145.43l-2.23,16.26h-4.36l-1.57-7.39-1.01,7.39h-4.16l2.23-16.26h4.16l1.78,7.32,1.01-7.32h4.16Z"/><path class="cls-2" d="m278.75,150.35h-4.62l.17-1.21c.08-.56.07-.92-.03-1.08-.1-.15-.28-.23-.56-.23-.3,0-.54.1-.72.31-.18.21-.3.52-.36.95-.07.54-.04.95.09,1.23.13.28.55.61,1.27,1,2.06,1.12,3.33,2.03,3.81,2.75.48.72.61,1.87.39,3.47-.16,1.16-.44,2.01-.83,2.56-.39.55-1.07,1.01-2.04,1.38-.97.37-2.06.56-3.27.56-1.33,0-2.44-.22-3.32-.64-.88-.43-1.42-.97-1.63-1.64-.2-.66-.22-1.6-.05-2.82l.15-1.06h4.62l-.27,1.98c-.08.61-.07,1,.03,1.18.11.17.32.26.65.26s.59-.11.79-.33c.19-.22.32-.55.38-.99.13-.96.06-1.58-.2-1.88-.28-.3-.98-.79-2.13-1.48-1.14-.7-1.89-1.2-2.25-1.52-.36-.31-.63-.75-.82-1.31-.19-.56-.22-1.26-.1-2.13.17-1.25.48-2.16.94-2.73.45-.58,1.12-1.03,2-1.35.88-.32,1.91-.49,3.09-.49,1.29,0,2.37.18,3.23.53.86.35,1.4.8,1.62,1.34.22.54.24,1.46.07,2.75l-.09.64Z"/><path class="cls-5" d="m327.41,145.43h4.96c1.57,0,2.74.1,3.52.31.78.21,1.37.63,1.78,1.26.41.63.52,1.65.33,3.06-.13.95-.4,1.61-.8,1.99-.4.38-1.13.66-2.19.86,1.12.22,1.85.59,2.19,1.1.34.51.44,1.3.29,2.36l-.21,1.51c-.15,1.1-.41,1.91-.78,2.44-.37.53-.89.89-1.56,1.09-.67.19-2.01.29-4.01.29h-5.76l2.23-16.26Zm3.75,8.93l-.63,4.55c.7-.02,1.16-.11,1.38-.28.22-.17.37-.58.46-1.24l.21-1.52c.1-.7.07-1.12-.09-1.27-.15-.15-.6-.23-1.34-.25Zm.84-6.15l-.5,3.62c.21,0,.38-.01.5-.01.49,0,.81-.1.98-.31.16-.2.31-.79.44-1.75.07-.51.06-.87-.02-1.07-.08-.2-.21-.33-.38-.39-.17-.05-.51-.08-1.02-.09Z"/><path class="cls-5" d="m370.2,154.95c-.22,1.63-.43,2.79-.61,3.47-.18.68-.55,1.3-1.11,1.86-.56.56-1.26.99-2.11,1.29-.85.3-1.82.45-2.9.45s-1.92-.14-2.7-.43c-.78-.28-1.37-.71-1.79-1.28-.42-.57-.63-1.19-.63-1.86,0-.67.11-1.84.34-3.52l.38-2.78c.22-1.63.43-2.79.61-3.47s.55-1.3,1.11-1.86c.55-.56,1.26-.99,2.11-1.3.85-.3,1.82-.45,2.9-.45s1.93.14,2.7.43c.78.28,1.37.71,1.79,1.28.42.57.63,1.19.63,1.86,0,.67-.11,1.84-.34,3.52l-.38,2.78Zm-4.24-5.34c.1-.76.12-1.24.05-1.45-.07-.21-.26-.32-.57-.32-.26,0-.47.08-.63.25-.16.17-.3.68-.41,1.51l-1.04,7.59c-.13.95-.17,1.53-.11,1.75.06.22.26.33.59.33s.57-.13.7-.38c.13-.25.26-.86.39-1.82l1.03-7.48Z"/><path class="cls-5" d="m392.73,145.43h3.52c2.35,0,3.93.08,4.74.23.81.15,1.43.55,1.87,1.18.44.63.56,1.64.37,3.03-.17,1.27-.48,2.12-.91,2.55-.43.44-1.19.7-2.29.78.96.21,1.58.49,1.87.83.29.35.46.67.5.96.04.29-.03,1.09-.21,2.41l-.59,4.29h-4.62l.74-5.4c.12-.87.11-1.41-.02-1.62-.13-.21-.54-.31-1.23-.31l-1.01,7.33h-4.98l2.23-16.26Zm4.59,2.78l-.5,3.62c.56,0,.96-.07,1.2-.2.24-.13.41-.55.51-1.27l.12-.89c.07-.52,0-.85-.19-1.01-.19-.16-.58-.24-1.15-.24Z"/><path class="cls-5" d="m425.13,145.43h3.72c2.4,0,4.01.09,4.84.28.82.19,1.42.5,1.8.93.38.43.59.91.63,1.43.04.53-.05,1.56-.26,3.1l-.78,5.7c-.2,1.46-.41,2.44-.65,2.93-.23.49-.56.88-1,1.16-.44.28-.96.47-1.57.58-.61.11-1.5.17-2.69.17h-6.27l2.23-16.26Zm4.59,2.78l-1.47,10.7c.72,0,1.17-.12,1.37-.37.2-.24.37-.91.52-1.99l.87-6.32c.1-.74.14-1.21.11-1.42-.03-.21-.13-.36-.32-.46-.18-.1-.55-.15-1.09-.15Z"/><path class="cls-5" d="m457.87,145.43h8.3l-.45,3.25h-3.32l-.42,3.08h3.11l-.42,3.09h-3.11l-.49,3.58h3.65l-.45,3.26h-8.63l2.23-16.26Z"/><path class="cls-5" d="m487.29,145.43h3.52c2.35,0,3.93.08,4.74.23.81.15,1.43.55,1.87,1.18.44.63.56,1.64.37,3.03-.17,1.27-.48,2.12-.91,2.55-.43.44-1.19.7-2.29.78.96.21,1.58.49,1.87.83.29.35.46.67.5.96.04.29-.03,1.09-.21,2.41l-.59,4.29h-4.62l.74-5.4c.12-.87.11-1.41-.02-1.62-.13-.21-.54-.31-1.23-.31l-1.01,7.33h-4.98l2.23-16.26Zm4.59,2.78l-.5,3.62c.56,0,.96-.07,1.2-.2.24-.13.41-.55.51-1.27l.12-.89c.07-.52,0-.85-.19-1.01-.19-.16-.58-.24-1.15-.24Z"/><path class="cls-5" d="m519.69,145.43h5.01c1.36,0,2.39.09,3.09.27.7.18,1.22.44,1.54.78.32.34.51.75.57,1.24.06.49.03,1.24-.11,2.26l-.19,1.42c-.14,1.04-.37,1.8-.69,2.27s-.83.84-1.54,1.1c-.71.25-1.61.38-2.69.38h-1.34l-.9,6.55h-4.98l2.23-16.26Zm4.59,2.78l-.57,4.14c.14,0,.26.01.36.01.46,0,.79-.1.99-.29.2-.19.35-.59.43-1.19l.18-1.34c.08-.56.02-.92-.16-1.09-.18-.17-.6-.25-1.24-.25Z"/><path class="cls-5" d="m556.18,145.43l-1.79,13.01h3.02l-.45,3.26h-8l2.23-16.26h4.98Z"/><path class="cls-5" d="m579.78,145.43h8.3l-.45,3.25h-3.32l-.42,3.08h3.11l-.42,3.09h-3.11l-.49,3.58h3.65l-.45,3.26h-8.63l2.23-16.26Z"/><path class="cls-5" d="m619.29,145.43l-2.74,7.19,1.39,9.07h-4.61c-.33-1.62-.56-3.6-.7-5.93-.27,1.03-.59,2.12-.97,3.28l-.83,2.65h-4.84l3.05-9.07-.82-7.19h4.81c.03.45.1,1.19.21,2.24.1.8.17,1.53.21,2.2l1.67-4.44h4.17Z"/></g></svg>